# xmcd
#
# Track frame offsets: 
#        150
#        9190
#        20496
#        32905
#        48961
#        60904
#        71707
#        83159
#        99070
#        108500
#
# Disc length: 1618 seconds
#
# Revision: 2
# Processed by: cddbd v1.5.2PL0 Copyright (c) Steve Scherf et al.
# Submitted via: ExactAudioCopyFreeDBPlugin 1.0
#
DISCID=6d06500a
DTITLE=Conjunto Atardecer - Los Número Uno Del Pasito Duranguense
DYEAR=2004
DGENRE=Country
TTITLE0=Corazón corazoncito
TTITLE1=Y Las Mariposas
TTITLE2=Recuerdame y ven
TTITLE3=Antes de que te Vayas
TTITLE4=No Aprendí a olvidar
TTITLE5=Nuestro Amor se fue
TTITLE6=Me gustas mucho
TTITLE7=Nadie es eterno
TTITLE8=Corazón de Oropel
TTITLE9=Dices tienes nuevo Amor
EXTD=
EXTT0=
EXTT1=
EXTT2=
EXTT3=
EXTT4=
EXTT5=
EXTT6=
EXTT7=
EXTT8=
EXTT9=
PLAYORDER=
